<mxfile host="app.diagrams.net" agent="Mozilla/5.0 (Windows NT 10.0; Win64; x64; rv:133.0) Gecko/20100101 Firefox/133.0" version="25.0.3">
  <diagram name="Page-1" id="nM8cbRk3KZLJgysnEEbO">
    <mxGraphModel dx="552" dy="346" grid="1" gridSize="10" guides="1" tooltips="1" connect="1" arrows="1" fold="1" page="1" pageScale="1" pageWidth="850" pageHeight="1100" math="0" shadow="0">
      <root>
        <mxCell id="0" />
        <mxCell id="1" parent="0" />
        <mxCell id="u9vShqVt5peOWBlMv1Y0-3" value="Editor" style="text;html=1;align=center;verticalAlign=middle;whiteSpace=wrap;rounded=0;" vertex="1" parent="1">
          <mxGeometry x="80" y="160" width="160" height="40" as="geometry" />
        </mxCell>
        <mxCell id="u9vShqVt5peOWBlMv1Y0-4" value="MonoGame API" style="rounded=0;whiteSpace=wrap;html=1;fillColor=#d80073;fontColor=#ffffff;strokeColor=#A50040;" vertex="1" parent="1">
          <mxGeometry x="280" y="320" width="160" height="40" as="geometry" />
        </mxCell>
        <mxCell id="u9vShqVt5peOWBlMv1Y0-5" value="Core API" style="rounded=0;whiteSpace=wrap;html=1;fillColor=#f8cecc;strokeColor=#b85450;" vertex="1" parent="1">
          <mxGeometry x="320" y="280" width="80" height="40" as="geometry" />
        </mxCell>
        <mxCell id="u9vShqVt5peOWBlMv1Y0-9" value="User Code" style="shape=partialRectangle;whiteSpace=wrap;html=1;top=1;left=1;fillColor=#b0e3e6;bottom=0;strokeColor=#0e8088;" vertex="1" parent="1">
          <mxGeometry x="240" y="200" width="200" height="40" as="geometry" />
        </mxCell>
        <mxCell id="u9vShqVt5peOWBlMv1Y0-12" value="" style="shape=partialRectangle;whiteSpace=wrap;html=1;right=0;top=0;bottom=0;fillColor=#b0e3e6;routingCenterX=-0.5;strokeColor=#0e8088;" vertex="1" parent="1">
          <mxGeometry x="240" y="240" width="80" height="80" as="geometry" />
        </mxCell>
        <mxCell id="u9vShqVt5peOWBlMv1Y0-14" value="Game Framework" style="shape=partialRectangle;whiteSpace=wrap;html=1;bottom=0;top=1;fillColor=#dae8fc;strokeColor=#6c8ebf;" vertex="1" parent="1">
          <mxGeometry x="360" y="240" width="80" height="40" as="geometry" />
        </mxCell>
        <mxCell id="u9vShqVt5peOWBlMv1Y0-15" value="" style="shape=partialRectangle;whiteSpace=wrap;html=1;right=1;top=0;bottom=0;fillColor=#dae8fc;routingCenterX=-0.5;left=0;strokeColor=#6c8ebf;" vertex="1" parent="1">
          <mxGeometry x="400" y="280" width="40" height="40" as="geometry" />
        </mxCell>
        <mxCell id="u9vShqVt5peOWBlMv1Y0-16" value="" style="shape=partialRectangle;whiteSpace=wrap;html=1;right=0;top=0;bottom=0;fillColor=#b0e3e6;routingCenterX=-0.5;left=0;strokeColor=#0e8088;" vertex="1" parent="1">
          <mxGeometry x="320" y="240" width="40" height="40" as="geometry" />
        </mxCell>
        <mxCell id="u9vShqVt5peOWBlMv1Y0-17" value="Anatomy of a Game: &quot;The Engine&quot; as Consumed by an End-User" style="text;html=1;align=center;verticalAlign=middle;whiteSpace=wrap;rounded=0;" vertex="1" parent="1">
          <mxGeometry x="240" y="160" width="200" height="40" as="geometry" />
        </mxCell>
        <mxCell id="u9vShqVt5peOWBlMv1Y0-18" value="Operating System API" style="rounded=0;whiteSpace=wrap;html=1;fillColor=#d0cee2;strokeColor=#56517e;" vertex="1" parent="1">
          <mxGeometry x="240" y="360" width="200" height="40" as="geometry" />
        </mxCell>
        <mxCell id="u9vShqVt5peOWBlMv1Y0-19" value="" style="shape=partialRectangle;whiteSpace=wrap;html=1;right=0;top=0;bottom=0;fillColor=#b0e3e6;routingCenterX=-0.5;strokeColor=#0e8088;" vertex="1" parent="1">
          <mxGeometry x="240" y="320" width="40" height="40" as="geometry" />
        </mxCell>
      </root>
    </mxGraphModel>
  </diagram>
</mxfile>
